# xmcd
#
# Track frame offsets:
#        150
#        17010
#        50950
#        84972
#        115697
#        152900
#        187660
#        207635
#        234125
#        261552
#        291105
#        312985
#
# Disc length: 4467 seconds
#
# Revision: 0
# Processed by: cddbd v1.5.1PL0 Copyright (c) Steve Scherf et al.
# Submitted via: ExactAudioCopy v0.95a4
#
DISCID=a211710c
DTITLE=Mauro Picotto - Selected Works
DYEAR=2001
DGENRE=Trance
TTITLE0=Iguana
TTITLE1=Like This Like That(Tea Mix)
TTITLE2=Pulser
TTITLE3=Taub?
TTITLE4=Pegasus
TTITLE5=Baguette
TTITLE6=Lizard
TTITLE7=Bug
TTITLE8=Eclectic
TTITLE9=Underground
TTITLE10=Pulser(DJ Shinkawa Remix)
TTITLE11=Iguana(Yoji Biomehanika's Hellhouse Remix)
EXTD=
EXTT0=
EXTT1=
EXTT2=
EXTT3=
EXTT4=
EXTT5=
EXTT6=
EXTT7=
EXTT8=
EXTT9=
EXTT10=
EXTT11=
PLAYORDER=
